<?xml version="1.0" encoding="UTF-8"?>
<svg xmlns="http://www.w3.org/2000/svg" xmlns:xlink="http://www.w3.org/1999/xlink" width="800pt" height="799pt" viewBox="0 0 800 799" version="1.1">
<g id="surface4">
<path style="fill-rule:nonzero;fill:rgb(33.332825%,33.332825%,99.998474%);fill-opacity:1;stroke-width:0.03;stroke-linecap:square;stroke-linejoin:miter;stroke:rgb(33.332825%,33.332825%,99.998474%);stroke-opacity:1;stroke-miterlimit:3.239307;" d="M 217.820312 795.378906 L 217.820312 386.292969 L 422.363281 386.292969 L 422.363281 795.378906 Z M 217.820312 795.378906 " transform="matrix(1,0,0,1,-74,-13)"/>
<path style="fill-rule:nonzero;fill:rgb(33.332825%,33.332825%,99.998474%);fill-opacity:1;stroke-width:0.03;stroke-linecap:square;stroke-linejoin:miter;stroke:rgb(33.332825%,33.332825%,99.998474%);stroke-opacity:1;stroke-miterlimit:3.239307;" d="M 447.933594 667.539062 L 447.933594 462.996094 L 857.019531 462.996094 L 857.019531 667.539062 Z M 447.933594 667.539062 " transform="matrix(1,0,0,1,-74,-13)"/>
<path style="fill-rule:nonzero;fill:rgb(33.332825%,33.332825%,99.998474%);fill-opacity:1;stroke-width:0.03;stroke-linecap:square;stroke-linejoin:miter;stroke:rgb(33.332825%,33.332825%,99.998474%);stroke-opacity:1;stroke-miterlimit:3.239307;" d="M 524.636719 437.429688 L 524.636719 28.339844 L 729.179688 28.339844 L 729.179688 437.429688 Z M 524.636719 437.429688 " transform="matrix(1,0,0,1,-74,-13)"/>
<path style="fill-rule:nonzero;fill:rgb(33.332825%,33.332825%,99.998474%);fill-opacity:1;stroke-width:0.03;stroke-linecap:square;stroke-linejoin:miter;stroke:rgb(33.332825%,33.332825%,99.998474%);stroke-opacity:1;stroke-miterlimit:3.239307;" d="M 89.980469 360.726562 L 89.980469 156.179688 L 499.066406 156.179688 L 499.066406 360.726562 Z M 89.980469 360.726562 " transform="matrix(1,0,0,1,-74,-13)"/>
<path style="fill:none;stroke-width:11.985;stroke-linecap:square;stroke-linejoin:miter;stroke:rgb(99.998474%,0%,0%);stroke-opacity:1;stroke-miterlimit:3.25;" d="M 575.773438 411.859375 C 575.773438 384.738281 564.996094 358.722656 545.816406 339.542969 C 526.636719 320.363281 500.625 309.589844 473.5 309.589844 C 446.375 309.589844 420.363281 320.363281 401.183594 339.542969 C 382.003906 358.722656 371.226562 384.738281 371.226562 411.859375 C 371.226562 438.984375 382.003906 465 401.183594 484.179688 C 420.363281 503.359375 446.375 514.132812 473.5 514.132812 C 500.625 514.132812 526.636719 503.359375 545.816406 484.179688 C 564.996094 465 575.773438 438.984375 575.773438 411.859375 Z M 575.773438 411.859375 " transform="matrix(1,0,0,1,-74,-13)"/>
<path style="fill:none;stroke-width:11.985;stroke-linecap:square;stroke-linejoin:miter;stroke:rgb(99.998474%,0%,0%);stroke-opacity:1;stroke-miterlimit:3.25;" d="M 626.90625 411.859375 C 626.90625 371.175781 610.746094 332.15625 581.976562 303.386719 C 553.207031 274.617188 514.1875 258.453125 473.5 258.453125 C 432.8125 258.453125 393.792969 274.617188 365.023438 303.386719 C 336.253906 332.15625 320.09375 371.175781 320.09375 411.859375 C 320.09375 452.546875 336.253906 491.566406 365.023438 520.335938 C 393.792969 549.105469 432.8125 565.269531 473.5 565.269531 C 514.1875 565.269531 553.207031 549.105469 581.976562 520.335938 C 610.746094 491.566406 626.90625 452.546875 626.90625 411.859375 Z M 626.90625 411.859375 " transform="matrix(1,0,0,1,-74,-13)"/>
<path style="fill:none;stroke-width:11.985;stroke-linecap:square;stroke-linejoin:miter;stroke:rgb(99.998474%,0%,0%);stroke-opacity:1;stroke-miterlimit:3.25;" d="M 729.179688 411.859375 C 729.179688 344.050781 702.242188 279.015625 654.292969 231.066406 C 606.34375 183.117188 541.3125 156.179688 473.5 156.179688 C 405.6875 156.179688 340.65625 183.117188 292.707031 231.066406 C 244.757812 279.015625 217.820312 344.050781 217.820312 411.859375 C 217.820312 479.671875 244.757812 544.703125 292.707031 592.652344 C 340.65625 640.601562 405.6875 667.539062 473.5 667.539062 C 541.3125 667.539062 606.34375 640.601562 654.292969 592.652344 C 702.242188 544.703125 729.179688 479.671875 729.179688 411.859375 Z M 729.179688 411.859375 " transform="matrix(1,0,0,1,-74,-13)"/>
<path style="fill:none;stroke-width:11.985;stroke-linecap:square;stroke-linejoin:miter;stroke:rgb(99.998474%,0%,0%);stroke-opacity:1;stroke-miterlimit:3.25;" d="M 780.316406 411.859375 C 780.316406 330.488281 747.992188 252.449219 690.453125 194.910156 C 632.914062 137.371094 554.871094 105.042969 473.5 105.042969 C 392.128906 105.042969 314.085938 137.371094 256.546875 194.910156 C 199.007812 252.449219 166.683594 330.488281 166.683594 411.859375 C 166.683594 493.234375 199.007812 571.273438 256.546875 628.8125 C 314.085938 686.351562 392.128906 718.675781 473.5 718.675781 C 554.871094 718.675781 632.914062 686.351562 690.453125 628.8125 C 747.992188 571.273438 780.316406 493.234375 780.316406 411.859375 Z M 780.316406 411.859375 " transform="matrix(1,0,0,1,-74,-13)"/>
</g>
</svg>
